<svg width="73" height="65" viewBox="0 0 73 65" fill="none" xmlns="http://www.w3.org/2000/svg">
<rect width="72.7844" height="65" fill="white"/>
<path d="M62.6649 32.891C62.6649 47.186 51.0766 58.7743 36.7817 58.7743C22.4868 58.7743 10.8984 47.186 10.8984 32.891C10.8984 18.5961 22.4868 7.00781 36.7817 7.00781C51.0766 7.00781 62.6649 18.5961 62.6649 32.891ZM17.1182 32.891C17.1182 43.7509 25.9218 52.5545 36.7817 52.5545C47.6415 52.5545 56.4452 43.7509 56.4452 32.891C56.4452 22.0312 47.6415 13.2276 36.7817 13.2276C25.9218 13.2276 17.1182 22.0312 17.1182 32.891Z" fill="#4258FF"/>
<circle cx="36.9763" cy="55.6605" r="3.11377" fill="#4258FF"/>
<path fill-rule="evenodd" clip-rule="evenodd" d="M42.0805 31.351L37.6252 35.8064L37.6249 23.356L35.549 23.356L35.5493 35.8071L31.0933 31.351L29.6255 32.8189L35.1191 38.3125C35.9297 39.1232 37.2441 39.1232 38.0548 38.3125L43.5484 32.8189L42.0805 31.351ZM27.2456 43.0765H45.9282V41.0007H27.2456V43.0765Z" fill="#4258FF"/>
</svg>
